<svg version="1.0" xmlns="http://www.w3.org/2000/svg" width="1600" height="1600" viewBox="0 0 1200 1200"><path d="M577 120.6c-30.1 2-50.5 4.7-74 9.5-143.1 29.3-266.7 124.2-332.2 255.4-26.9 53.8-43 110.5-49 173-1.6 16.8-1.6 66.2 0 83 7 72.4 27.4 137 62.7 198.4 47.3 82.4 120.8 150.6 207 192.2 86.1 41.5 182.4 56.4 277 42.8 90.1-13 173.4-50.8 244-110.8 12.7-10.7 40.5-38.6 51.6-51.6 59.8-70.1 97.8-153.8 110.8-244 3.5-24.6 4.5-39.3 4.5-68.5 0-29.2-1-43.9-4.5-68.5-27.2-188.7-164.3-344-348.4-394.4-25.1-6.9-56.1-12.5-83.5-15.1-11.9-1.1-56.3-2.1-66-1.4zm55.5 12.4c63 4.6 120.2 20.2 176 48 106.6 53.1 188.6 144.3 230.3 256 5 13.4 13.2 39.3 13.2 41.8 0 1-1.6 1.2-6.2 1l-6.1-.3-3.9-12.9c-14.4-48-39-96.7-69.4-137.7-25.2-33.9-58.5-67.4-92.9-93.5-38-28.8-86.9-54.1-133.5-69.2-90.5-29.3-189.5-29.3-280 0-38.8 12.5-78.2 31.6-111.9 54-77.7 51.7-137.9 125.9-171.8 211.8-4.9 12.3-10.9 30.1-15.9 46.7-.4 1.6-12.4 1.8-12.4.2 0-1.8 4.8-17.9 8.8-29.9C199.1 324.6 293.9 222.2 415 170c48-20.7 104.3-34.2 156-37.3 13.2-.8 48.7-.6 61.5.3zm2.1 17c90.3 7.1 174.8 40.3 246.2 96.8 67.9 53.9 119.8 127.9 147.1 210.1 3.2 9.7 6.2 18.9 6.5 20.4l.7 2.8-10.1-.3-10-.3-5.5-16.2c-17.1-51.3-42.9-97.6-78-140-11.8-14.3-40.1-42.6-54.5-54.4-68.4-56.5-144.3-88.6-233.2-98.6-21.3-2.3-67.6-2.3-88.3.1-52.4 6-98 19-143 40.6-43.7 20.9-81.8 48.1-117.6 83.9-49 49-82.7 103.5-104.5 168.6l-5.4 16-10 .3-10.1.3.7-2.8c.3-1.5 3.2-10.7 6.4-20.3 31.3-94.3 94.6-177 178-232.7 63.2-42.1 137.9-68.1 213-74.2 15.2-1.2 56.6-1.3 71.6-.1zm12.4 32.4c96.4 11.5 183.3 53.6 250.4 121.1 45.7 46.1 79.3 100.1 100.5 161.7l5 14.8H197.1l5-14.8C249.9 325 368.4 219.5 512.5 189.1c15.3-3.3 38.1-6.6 54.5-8 15.6-1.4 64-.6 80 1.3zm410.9 319.8c7.4 35.7 9.6 58 9.6 97.8s-2.2 62.1-9.6 97.7l-2.2 10.3H599.9c-250.8 0-455.9-.2-455.9-.4 0-.3-1.3-7.2-3-15.4-12.3-62.3-12-126.2 1.2-190l2.1-10.2h911.4l2.2 10.2zm-897.5 219c9.9 33 17.4 52.3 31.1 80.3 10.7 21.8 18.7 35.7 30.7 53.5 35.1 51.8 83 98.2 136 131.5 28.5 17.9 69.1 36.7 101.8 47.3 103.6 33.5 216.9 28.5 317.4-13.9 112-47.3 201.7-139.1 246.3-251.9 4.9-12.3 10.9-30.1 15.9-46.8.2-.8 2.4-1.2 6.4-1.2 4.1 0 6 .4 6 1.2 0 2.5-8.2 28.5-13.2 41.8-60.5 162.1-205.8 278.3-376.4 300.9-34.7 4.6-79.2 5.2-112.3 1.6-112-12.3-214.8-63.6-291.7-145.6-39.4-41.9-72.2-93.6-93.1-146.4-6.7-17-15.5-43.1-16.9-50.3l-.6-3.2h6.1c4.1 0 6.3.4 6.5 1.2zm30 15.3c21.8 65.1 55.6 119.6 104.5 168.6 49.3 49.2 104.6 83.4 170.1 105 45.7 15.1 85.1 21.3 135 21.3 38.8 0 67.9-3.4 102.7-12 144.1-35.3 259.8-142 306.9-282.9l5.4-16 10-.3 10.1-.3-.7 2.8c-1.7 7.3-12.8 39.2-17.9 51.2-58.5 138.7-180.4 238.7-327.2 268.5-28.7 5.9-57.1 8.6-89.3 8.6-51.1 0-95.6-7.1-143-23-122.9-41-221.5-132.4-273-253-5.4-12.8-16.6-44.5-18.4-52.3l-.7-2.8 10.1.3 10 .3 5.4 16zm807.6-2.3c-29.3 86.2-83.6 158.4-158 210.5-124.6 87.3-288.6 99.7-425.6 32.2-99.2-48.8-175.7-135.8-211.8-240.8l-5.5-16.1h805.8l-4.9 14.2z"/><path d="m563.5 271-35 12.8-.2 45.9-.3 45.8 35.4 19.2c19.5 10.6 36 19.3 36.6 19.3.6 0 17.1-8.7 36.6-19.3l35.4-19.2-.3-45.8-.2-45.9-35.5-12.9c-19.5-7.1-35.9-12.9-36.5-12.8-.5 0-16.7 5.8-36 12.9zm62.3 8.5c13.3 4.9 23.9 9.1 23.5 9.5-1.5 1.3-48 22-49.3 22-1.3 0-47.8-20.7-49.3-22-.8-.7 48.2-19 49.8-18.5.6.1 11.9 4.2 25.3 9zm-51.1 33.3 19.3 8.7V398.2l-5.2-2.9c-2.9-1.7-15.1-8.3-27-14.8L540 368.6v-71.5l7.8 3.5c4.2 1.9 16.4 7.4 26.9 12.2zm85.3 20v35.8l-21.7 11.9c-12 6.5-24.2 13.1-27 14.8l-5.3 2.9V321.5l26.8-12.2c14.7-6.7 26.8-12.2 27-12.2.1-.1.2 16 .2 35.7z"/><path d="M592.8 283.6c-6.2 2.6-6.1 6.3.3 8.8 2.2.9 5.3 1.6 6.9 1.6 3.8 0 10.7-2.8 11.4-4.6.9-2.4-.4-4.2-4.5-5.8-4.9-2-9.3-2-14.1 0zM577.5 325.7c-2 2-1.5 6.8 1 10.7 2.2 3.4 8 3.7 9 .6 1-3.2-.4-7.6-3.2-10.4-3-3-4.5-3.2-6.8-.9zM562 339.5c-.8.9-1 2.9-.7 5.2 1.2 7.3 8.6 11.2 10.8 5.7 2.6-6.9-5.9-16-10.1-10.9zM546.9 353.4c-2.2 4.7 2.1 12.6 6.7 12.6 2.9 0 5-3.7 4-7.3-1.7-6.8-8.5-10.2-10.7-5.3zM621.1 331.6c-2.6 1.9-5.1 7.1-5.1 10.7 0 1.3.8 3.2 1.9 4.1 5.8 5.2 15.2-7 10.7-13.9-1.9-2.9-4.2-3.2-7.5-.9zM640.6 348c-2.9 3.5-4.4 9.6-2.9 11.9.6.9 2.4 1.7 4 1.9 3.7.4 7.9-4 8.9-9.2 1.4-7.5-5-10.5-10-4.6zM284 566.6c-1.9.7-5 1.3-6.7 1.3-3.1.1-3.3.3-3.3 3.7 0 3.5.1 3.6 3 3l3-.6v26c0 22.2-.2 26.1-1.6 27.4-.8.9-2.2 1.6-3 1.6-.9 0-1.4 1.1-1.4 3v3h24v-3.5c0-3.2-.3-3.5-2.7-3.5h-2.8l.3-31.5.3-31.5-2.8.1c-1.6.1-4.4.7-6.3 1.5zM324 566.6c-1.9.7-5 1.3-6.7 1.3-3.1.1-3.3.3-3.3 3.7 0 3.5.1 3.6 3 3l3-.6v26c0 22.2-.2 26.1-1.6 27.4-.8.9-2.2 1.6-3 1.6-.9 0-1.4 1.1-1.4 3v3h24v-3.5c0-3.2-.3-3.5-2.7-3.5h-2.8l.3-31.5.3-31.5-2.8.1c-1.6.1-4.4.7-6.3 1.5zM867 566.6c-1.9.7-5 1.3-6.7 1.3-3.1.1-3.3.3-3.3 3.7 0 3.5.1 3.6 3 3l3-.6v26c0 22.2-.2 26.1-1.6 27.4-.8.9-2.2 1.6-3 1.6-.9 0-1.4 1.1-1.4 3v3h24v-3.5c0-3.2-.3-3.5-2.7-3.5h-2.8l.3-31.5.3-31.5-2.8.1c-1.6.1-4.4.7-6.3 1.5zM217.4 596.2c-8.2 22.7-10.4 27.8-13.1 30.5-2 1.9-3.3 4.1-3.3 5.7v2.6h19v-3.5c0-3.2-.2-3.5-3-3.5-1.6 0-3-.3-3-.8 0-.9 3.4-10 4-10.6.3-.2 5-.6 10.4-.7l10-.3 1.2 3.4c1.9 5.4 1.7 8.8-.6 9.5-1.4.4-2 1.5-2 3.6v2.9h24v-3.5c0-3-.3-3.5-2.2-3.5-2 0-2.8-1.4-5.7-9.3-1.8-5-6.9-18.3-11.3-29.5l-7.9-20.2h-6.6l-9.9 27.2zm11.6-8.5c0 1 1.6 6.2 3.5 11.5l3.4 9.8h-15.7l3.4-9.8c1.8-5.3 3.4-10.5 3.4-11.5 0-.9.5-1.7 1-1.7.6 0 1 .8 1 1.7zM408.5 571c-6.5 2.5-13.1 9-16.3 16-3.4 7.3-4.2 20.3-1.8 28.2 5.5 17.4 22 24.7 42.9 18.9 4.3-1.1 9.1-2.1 10.7-2.1h3v-9.9c0-10.2 1-13.1 4.6-13.1.9 0 1.4-1.1 1.4-3v-3h-24v3.5c0 3.3.2 3.5 3.4 3.5h3.4l-.5 8.2c-.3 4.6-1 8.7-1.5 9.3-.5.5-4.8 1-9.6 1-10.5 0-13.7-1.8-18-9.8-2.5-4.8-2.7-6.1-2.7-16.7 0-12.6.9-15.5 6.8-21.7 3.9-4.1 8.6-5.7 14.4-4.8 5.7.8 11.8 6.1 13.5 11.6.9 3.3 1.5 3.9 4 3.9h2.8v-22h-3.5c-2.8 0-3.5.4-3.5 1.9 0 1.9-.1 1.9-6.1 0-7.8-2.4-16.9-2.4-23.4.1zM720 573.4c0 3.4.2 3.6 3.3 3.6h3.2l-.3 23.2c-.1 12.8-.5 24.3-.7 25.5-.3 1.4-1.5 2.5-3 2.9-1.9.5-2.5 1.3-2.5 3.5v2.9h27v-3.5c0-3.4-.1-3.5-4-3.5h-4l.2-9 .3-9h2.8c2.4 0 3.5 1.2 8.6 9.2 3.2 5.1 7.1 10.8 8.6 12.5 2.6 3.2 3 3.3 10.1 3.3h7.4v-2.8c-.1-1.9-1-3.3-3.3-4.7-1.8-1.1-5.3-5.2-8-9-2.6-3.9-5.7-7.8-6.9-8.8-1.8-1.5-2-2-.7-2.8.7-.5 1.9-.9 2.5-.9 1.9 0 9.1-6.9 10.4-10 1.8-4.4.9-13.9-1.8-17.7-1.2-1.7-4.3-4.2-7-5.4-4.3-2.2-6.3-2.4-23.4-2.7l-18.8-.4v3.6zm33.9 5.4c5.7 4.2 6.3 14.7 1.1 20.5-2.6 2.9-3.3 3.2-9.2 3.2h-6.3l.1-11.9c0-10.5.3-12 2-13.3 2.5-1.9 8.8-1.1 12.3 1.5zM483.7 588c-10.5 2.7-15.6 9.6-11.4 15.4 3.1 4.2 11.7.2 10.1-4.6-.3-1 0-2.5.6-3.3 1.6-2 8.4-1.9 10 0 1.5 1.8 2.7 11.5 1.4 11.5-3.7.1-15.2 3.3-18.1 5.1-7 4.3-9.2 12.2-5.3 18.6 1 1.7 2.9 3.7 4.1 4.3 3.4 1.9 13.4.8 16.8-1.8 2.9-2.1 3-2.1 3.6-.2.6 1.8 1.5 2 9.1 2h8.4v-3.5c0-3.2-.2-3.5-3-3.5h-3v-14.8c0-16.5-1-20.2-6.5-23.4-3.8-2.1-11.8-3-16.8-1.8zm11.1 31.2c-.3 5-.5 5.4-4.1 7.1-3.5 1.8-3.9 1.8-6.2.3-5.8-3.8-.4-12.4 7.8-12.6 2.8 0 2.8.1 2.5 5.2zM554.8 588.6c-2.6.8-5 1.9-5.3 2.4-1.1 1.7-2.5 1.1-2.5-1.1 0-2.3.5-2.3-12.7.2-6 1.1-6.3 1.3-6.3 4 0 2.6.3 2.9 3.3 2.9h3.3l-.4 14.7c-.4 14.5-1 17.3-3.8 17.3-.9 0-1.4 1.1-1.4 3v3h23v-3.5c0-3.1-.3-3.5-2.5-3.5H547v-14.4c0-13.8.1-14.6 2.2-16 1.2-.9 3.9-1.6 6-1.6 6.1 0 6.9 2.2 6.6 18.1-.3 12.8-.4 13.4-2.5 14.4-1.6.7-2.3 1.8-2.3 3.7v2.8h24v-3.5c0-3.2-.2-3.5-2.9-3.5h-3l-.3-14.6c-.3-13.6-.2-14.7 1.7-16 3-2.1 8.9-1.8 11.1.7 1.6 1.8 2 4 2.2 13.8.4 12-.6 17.1-3.3 17.1-1 0-1.5 1-1.5 3v3h23v-3.5c0-3.2-.3-3.5-2.7-3.5h-2.8v-14.8c0-11.4-.4-15.5-1.7-18.4-3.3-7.5-14.2-9.6-23.2-4.5l-4.9 2.7-2.2-2c-2-1.9-7.6-4.1-10-3.9-.5 0-3.1.7-5.7 1.5zM639.7 588.4c-5.5 1.5-10.8 6.1-14 12.1-3.2 6-3.1 17.3.3 24 3.7 7.4 9.2 10.8 18.1 11.3 8.6.5 14.1-1.4 19.3-6.5l3.7-3.7-2-2-2.1-2-2.2 2.1c-3.1 2.9-7.1 4.3-12.4 4.3-6.1 0-9.7-3.5-11.3-10.9-.6-2.9-.9-5.7-.5-6.2.3-.5 7.3-.9 15.6-.9h15l-.7-4.8c-1.9-13.4-13.3-20.5-26.8-16.8zm10.9 6.4c1.6 1.1 3.4 4.8 3.4 7.1 0 2-.6 2.1-8.5 2.1-5.3 0-8.5-.4-8.5-1.1 0-1.4 1.9-5 3.8-7.2 1.5-1.7 7.7-2.4 9.8-.9zM914.7 588.4c-5.5 1.5-10.8 6.1-14 12.1-3.2 6-3.1 17.3.3 24 3.7 7.4 9.2 10.8 18.1 11.3 8.6.5 14.1-1.4 19.3-6.5l3.7-3.7-2-2-2.1-2-2.2 2.1c-3.1 2.9-7.1 4.3-12.4 4.3-6.1 0-9.7-3.5-11.3-10.9-.6-2.9-.9-5.7-.5-6.2.3-.5 7.3-.9 15.6-.9h15l-.7-4.8c-1.9-13.4-13.3-20.5-26.8-16.8zm10.9 6.4c1.6 1.1 3.4 4.8 3.4 7.1 0 2-.6 2.1-8.5 2.1-5.3 0-8.5-.4-8.5-1.1 0-1.4 1.9-5 3.8-7.2 1.5-1.7 7.7-2.4 9.8-.9zM970.1 588.1c-7.5 2.2-11.1 7.1-11.1 14.9 0 5.7 4.1 9.7 14.5 13.9 10.1 4.1 12.5 5.7 12.5 8 0 3.4-3.5 5.4-8.5 4.9-5.3-.6-9.1-2.9-11.3-6.9-1.3-2.1-2.5-2.9-4.5-2.9h-2.8l.7 7.2c.3 4 .8 7.4.9 7.6.2.2 1.5.5 2.9.6 1.7.2 2.6-.2 2.6-1 0-1.7 0-1.7 4.3.1 5 2.1 14.4 1.9 18.6-.3 6.9-3.5 9.7-11 6.6-17.6-2.1-4.3-8.5-8.4-18.3-11.7-7.1-2.4-9.3-5-7.3-8.8 1-1.7 2.1-2.1 6.2-2.1 4.5 0 5.5.4 8.5 3.4 1.9 1.9 3.4 4.1 3.4 5 0 1.1.9 1.6 3 1.6h3v-16h-3.4c-1.9 0-3.6.5-3.8 1.1-.3.9-.9.9-2.3.1-3.1-1.6-10.7-2.2-14.4-1.1zM799 589.6c-2.5.7-5.5 1.3-6.7 1.3-1.9.1-2.3.7-2.3 3.1 0 2.7.3 3 3 3h3v13.7c0 15.8 1.5 21 6.9 23.7 5.8 3 17.9.9 20.7-3.6.6-.9 1-.5 1.4 1.2.6 2.4.9 2.5 9.3 2.8l8.7.3v-3.6c0-3.2-.2-3.5-3-3.5h-3v-40.2l-3.2.5c-15.5 2.7-15.8 2.8-15.8 5.8 0 2.6.3 2.9 3.3 2.9h3.4l-.4 13.2c-.4 12.6-.6 13.4-2.9 15.5-2.9 2.6-7.1 3-10 .9-1.7-1.3-1.9-3-2.2-20l-.3-18.6-2.7.1c-1.5.1-4.7.7-7.2 1.5zM474.4 901.3l-5 12.1-12 1.7c-6.5 1-12.1 1.8-12.4 1.8-.2.1 3.5 4.1 8.4 9l8.8 8.8-1.7 11.7c-.9 6.5-1.5 12-1.2 12.2.3.3 5-1.8 10.6-4.5L480 949l10.1 5.1c5.6 2.7 10.3 4.8 10.6 4.6.2-.3-.3-5.8-1.3-12.2l-1.7-11.7 8.9-8.9c4.9-4.9 8.6-8.9 8.4-9-.3 0-5.9-.8-12.4-1.7l-11.9-1.7-4.9-11.5c-2.7-6.3-5.2-11.8-5.6-12.2-.4-.3-3 4.8-5.8 11.5zM594.4 901.3l-5 12.1-12 1.7c-6.5 1-12.1 1.8-12.4 1.8-.2.1 3.5 4.1 8.4 9l8.8 8.8-1.7 11.7c-.9 6.5-1.5 12-1.2 12.2.3.3 5-1.8 10.6-4.5L600 949l10.1 5.1c5.6 2.7 10.3 4.8 10.6 4.6.2-.3-.3-5.8-1.3-12.2l-1.7-11.7 8.8-8.8c10-10.1 10.4-9.1-4-11-4.4-.6-8.9-1.3-10-1.5-1.5-.3-3.3-3.4-6.9-12-2.7-6.4-5.2-11.7-5.5-11.9-.3-.2-2.9 5.1-5.7 11.7zM714.4 901.3l-5 12.1-12 1.7c-6.5 1-12.1 1.8-12.4 1.8-.2.1 3.5 4.1 8.4 9l8.8 8.8-1.7 11.7c-.9 6.5-1.5 12-1.2 12.2.3.3 5-1.8 10.6-4.5L720 949l10.1 5.1c5.6 2.7 10.3 4.8 10.6 4.6.2-.3-.3-5.8-1.3-12.2l-1.7-11.7 8.8-8.8c10-10.1 10.4-9.1-4-11-4.4-.6-8.9-1.3-10-1.5-1.5-.3-3.3-3.4-6.9-12-2.7-6.4-5.2-11.7-5.5-11.9-.3-.2-2.9 5.1-5.7 11.7z"/></svg>